<?xml version="1.0" encoding="UTF-8" standalone="no"?>
<svg width="146px" height="33px" viewBox="0 0 146 33" version="1.1" xmlns="http://www.w3.org/2000/svg" xmlns:xlink="http://www.w3.org/1999/xlink" xmlns:sketch="http://www.bohemiancoding.com/sketch/ns">
    <!-- Generator: Sketch 3.3.3 (12072) - http://www.bohemiancoding.com/sketch -->
    <title>anynines</title>
    <desc>Created with Sketch.</desc>
    <defs></defs>
    <g id="Page-1" stroke="none" stroke-width="1" fill="none" fill-rule="evenodd" sketch:type="MSPage">
        <g id="page-courses" sketch:type="MSArtboardGroup" transform="translate(-71.000000, -32.000000)" fill="#FFFFFF">
            <g id="anynines" sketch:type="MSLayerGroup" transform="translate(71.000000, 32.000000)">
                <g id="logo-text" transform="translate(58.000000, 3.000000)" sketch:type="MSShapeGroup">
                    <g id="enterprise" transform="translate(0.000000, 17.000000)">
                        <path d="M5.10000379,5.98779528 C5.07390816,5.36180197 4.88911883,4.84249819 4.54566103,4.42988393 C4.202178,4.01726966 3.71304907,3.81097611 3.07827426,3.81097611 C2.78261638,3.81097611 2.50868803,3.87026616 2.25651444,3.98881912 C2.00434086,4.10739923 1.78260376,4.26862801 1.59130314,4.47255973 C1.40000252,4.67649146 1.24782011,4.90887373 1.13478113,5.16970654 C1.02174215,5.43056649 0.956528323,5.70326274 0.939139652,5.98779528 L5.10000379,5.98779528 L5.10000379,5.98779528 Z M6,6.3008055 L6,6.51423884 C6,6.590116 5.9956339,6.67074396 5.98695219,6.75609557 L0.926091839,6.75609557 C0.934798794,7.08808188 0.995646523,7.4010921 1.10871074,7.69512626 C1.22174972,7.98916041 1.37827299,8.24524241 1.57825533,8.46339941 C1.7782629,8.6815564 2.01304781,8.85467576 2.28261007,8.98273034 C2.55217232,9.11075776 2.84348934,9.17479862 3.15651066,9.17479862 C3.61739877,9.17479862 4.01521824,9.05860749 4.34999432,8.82622522 C4.6847704,8.59384296 4.93911441,8.32587037 5.1130516,8.02236175 L5.7782629,8.59145398 C5.41305034,9.09417066 5.01086476,9.45460751 4.57173142,9.6727645 C4.13259808,9.8909215 3.66085782,10 3.15651066,10 C2.70435474,10 2.2847805,9.91225941 1.8978384,9.73677822 C1.51087107,9.56129703 1.17826542,9.31707847 0.899996214,9.00406824 C0.621752243,8.69105801 0.402185572,8.32114671 0.241321438,7.89430718 C0.0804320668,7.46746765 0,7.00270311 0,6.50001357 C0,5.99729689 0.0782616377,5.53253235 0.234784913,5.10569282 C0.391308188,4.67888044 0.60870443,4.30894199 0.886973639,3.99593176 C1.16521761,3.68292153 1.49131197,3.43870297 1.86523149,3.26322178 C2.23912577,3.08774059 2.64348177,3 3.07827426,3 C3.5565258,3 3.97827047,3.08774059 4.34348303,3.26322178 C4.7086956,3.43870297 5.01303519,3.6758089 5.25652706,3.97459385 C5.49999369,4.27337881 5.68478302,4.62195221 5.81086981,5.0203412 C5.9369566,5.41870305 6,5.84554258 6,6.3008055 L6,6.3008055 Z" id="Fill-1"></path>
                        <path d="M11.9535533,3.17499861 C11.9731103,3.35973637 11.9877851,3.56389677 11.9975495,3.78750765 C12.0073422,4.01111853 12.0122243,4.19582846 12.0122243,4.34166528 L12.041574,4.34166528 C12.2371725,3.94305579 12.5550236,3.61979949 12.9950989,3.37189639 C13.4352026,3.12396546 13.8997455,3 14.3887559,3 C15.2591706,3 15.9119887,3.25764225 16.3471819,3.77292675 C16.7824034,4.28821126 17,4.96875522 17,5.81458646 L17,10 L16.0024505,10 L16.0024505,6.22290728 C16.0024505,5.86319873 15.9731008,5.53749374 15.9144298,5.24584794 C15.8557588,4.95417432 15.7555043,4.70382252 15.6136946,4.49479254 C15.471885,4.28576256 15.2811687,4.12292397 15.041574,4.00624896 C14.801951,3.88960177 14.5012158,3.83125035 14.1393685,3.83125035 C13.8753063,3.83125035 13.6185957,3.88473219 13.3692084,3.99166806 C13.1197926,4.09860392 12.8973139,4.26147033 12.7017154,4.48021164 C12.5061169,4.69895294 12.3496324,4.97604567 12.232262,5.31146199 C12.1149199,5.6468783 12.0562489,6.04306692 12.0562489,6.5 L12.0562489,10 L11.058671,10 L11.058671,4.67708159 C11.058671,4.49237166 11.0537889,4.25417988 11.0439962,3.96250626 C11.0342319,3.67083264 11.019557,3.40834864 11,3.17499861 L11.9535533,3.17499861 L11.9535533,3.17499861 Z" id="Fill-2"></path>
                        <path d="M25,3.80692452 L23.2222309,3.80692452 L23.2222309,7.86139624 C23.2222309,8.11881762 23.2446677,8.33169183 23.2895673,8.50001889 C23.3344669,8.66831761 23.3995622,8.79952203 23.4848532,8.89357549 C23.5701442,8.98762894 23.6711488,9.05198428 23.787893,9.08664152 C23.9046111,9.12129876 24.0303196,9.13861321 24.1649924,9.13861321 C24.2907009,9.13861321 24.4231325,9.11880502 24.5622875,9.07921699 C24.7014684,9.03960062 24.8339001,8.98516354 24.9596086,8.91584907 L25,9.79208491 C24.8383823,9.86139939 24.6700413,9.91337108 24.4949511,9.94802831 C24.3198608,9.98268555 24.1290831,10 23.9225658,10 C23.7519577,10 23.5723853,9.97526102 23.3838486,9.92575473 C23.1952859,9.87624844 23.0201957,9.78219499 22.858604,9.64356604 C22.6969863,9.50496543 22.5645546,9.31683019 22.4612829,9.07921699 C22.3580372,8.8416038 22.3064144,8.529717 22.3064144,8.14355659 L22.3064144,3.80692452 L21,3.80692452 L21,2.96038678 L22.3064144,2.96038678 L22.3064144,1 L23.2222309,1 L23.2222309,2.96038678 L25,2.96038678 L25,3.80692452 L25,3.80692452 Z" id="Fill-3"></path>
                        <path d="M33.1000038,5.98779528 C33.0739082,5.36180197 32.8891188,4.84249819 32.545661,4.42988393 C32.202178,4.01726966 31.7130491,3.81097611 31.0782743,3.81097611 C30.7826164,3.81097611 30.508688,3.87026616 30.2565144,3.98881912 C30.0043409,4.10739923 29.7826038,4.26862801 29.5913031,4.47255973 C29.4000025,4.67649146 29.2478453,4.90887373 29.1347811,5.16970654 C29.0217421,5.43056649 28.9565283,5.70326274 28.9391397,5.98779528 L33.1000038,5.98779528 L33.1000038,5.98779528 Z M34,6.3008055 L34,6.51423884 C34,6.590116 33.9956591,6.67074396 33.9869522,6.75609557 L28.9260918,6.75609557 C28.9347988,7.08808188 28.9956718,7.4010921 29.1087107,7.69512626 C29.2217497,7.98916041 29.378273,8.24524241 29.5782553,8.46339941 C29.7782629,8.6815564 30.0130478,8.85467576 30.2826101,8.98273034 C30.5521723,9.11075776 30.8434893,9.17479862 31.1565359,9.17479862 C31.6173988,9.17479862 32.0152182,9.05860749 32.3499943,8.82622522 C32.6847704,8.59384296 32.9391397,8.32587037 33.1130516,8.02236175 L33.7782629,8.59145398 C33.4130503,9.09417066 33.0108648,9.45460751 32.5717314,9.6727645 C32.1325981,9.8909215 31.6608831,10 31.1565359,10 C30.7043547,10 30.2847805,9.91225941 29.8978384,9.73677822 C29.5108711,9.56129703 29.1782654,9.31707847 28.8999962,9.00406824 C28.6217522,8.69105801 28.4021856,8.32114671 28.2413214,7.89430718 C28.0804573,7.46746765 28,7.00270311 28,6.50001357 C28,5.99729689 28.0782616,5.53253235 28.2347849,5.10569282 C28.3913082,4.67888044 28.6087044,4.30894199 28.8869736,3.99593176 C29.1652176,3.68292153 29.491312,3.43870297 29.8652315,3.26322178 C30.2391258,3.08774059 30.6434818,3 31.0782743,3 C31.5565258,3 31.9782705,3.08774059 32.343483,3.26322178 C32.7086956,3.43870297 33.0130352,3.6758089 33.2565271,3.97459385 C33.4999937,4.27337881 33.684783,4.62195221 33.8108698,5.0203412 C33.9369566,5.41870305 34,5.84554258 34,6.3008055 L34,6.3008055 Z" id="Fill-4"></path>
                        <path d="M39.0601414,4.67708159 C39.0601414,4.49237166 39.0551369,4.25417988 39.0451279,3.96250626 C39.0350898,3.67083264 39.0200471,3.40834864 39,3.17499861 L39.9774506,3.17499861 C39.9974977,3.35973637 40.0125404,3.56389677 40.0225494,3.78750765 C40.0325875,4.01111853 40.037592,4.19582846 40.037592,4.34166528 L40.0676773,4.34166528 C40.2681777,3.94305579 40.5689138,3.61979949 40.9699147,3.37189639 C41.3709157,3.12396546 41.8220489,3 42.3233146,3 C42.4536355,3 42.5714161,3.00486957 42.6766854,3.0145809 C42.7819547,3.02432005 42.8897262,3.04377052 43,3.07293232 L42.8646746,4.00624896 C42.8045041,3.98682631 42.7042684,3.96737584 42.5639093,3.94792536 C42.4235503,3.92847489 42.2832203,3.91876357 42.1428613,3.91876357 C41.8721813,3.91876357 41.6115395,3.96737584 41.3609066,4.06460038 C41.1102738,4.16182492 40.8922285,4.31492435 40.7067706,4.52395433 C40.5213128,4.73298431 40.3709157,5.00033789 40.2556373,5.32604288 C40.140359,5.65174788 40.0827199,6.04306692 40.0827199,6.5 L40.0827199,10 L39.0601414,10 L39.0601414,4.67708159 L39.0601414,4.67708159 Z" id="Fill-5"></path>
                        <path d="M47.9734101,13 L47,13 L47,3.16666578 L47.9734101,3.16666578 L47.9734101,4.29166645 L48.0163694,4.29166645 C48.2931254,3.86573983 48.6629182,3.54398927 49.1257755,3.32638826 C49.5886051,3.10881376 50.0586362,3 50.5357855,3 C51.0606581,3 51.5354531,3.08798384 51.9601152,3.26389853 C52.384805,3.43981322 52.7474518,3.68057624 53.0480556,3.98610809 C53.3486871,4.29166645 53.5824839,4.65279773 53.7495014,5.06944893 C53.9164912,5.48612664 54,5.93518877 54,6.41668831 C54,6.89816135 53.9164912,7.34722347 53.7495014,7.76390118 C53.5824839,8.18055239 53.3486871,8.54168367 53.0480556,8.84724202 C52.7474518,9.15280038 52.384805,9.3935369 51.9601152,9.56945159 C51.5354531,9.74539277 51.0606581,9.83335012 50.5357855,9.83335012 C50.0586362,9.83335012 49.5886051,9.72453636 49.1257755,9.50696185 C48.6629182,9.28936085 48.2931254,8.97685919 48.0163694,8.56945689 L47.9734101,8.56945689 L47.9734101,13 L47.9734101,13 Z M52.9693386,6.41668831 C52.9693386,6.05555703 52.9120596,5.71528216 52.7975571,5.3958372 C52.6830268,5.07639224 52.518419,4.7986336 52.3036783,4.56250828 C52.0889652,4.32640946 51.8241469,4.13888727 51.5091957,4.0000212 C51.1942721,3.86112863 50.836417,3.7916691 50.435575,3.7916691 C50.0634002,3.7916691 49.7198371,3.85879653 49.4049136,3.9930514 C49.08999,4.12733276 48.817998,4.31249636 48.5889652,4.54862167 C48.3599047,4.78472049 48.1809772,5.06250563 48.0521549,5.38195059 C47.9233049,5.70139555 47.8589076,6.04630812 47.8589076,6.41668831 C47.8589076,6.78704199 47.9233049,7.13195457 48.0521549,7.45139953 C48.1809772,7.77084449 48.3599047,8.04629752 48.5889652,8.27778514 C48.817998,8.50927276 49.08999,8.69213075 49.4049136,8.82641211 C49.7198371,8.96066698 50.0634002,9.02779441 50.435575,9.02779441 C50.836417,9.02779441 51.1942721,8.96066698 51.5091957,8.82641211 C51.8241469,8.69213075 52.0889652,8.50696715 52.3036783,8.27084184 C52.518419,8.03474302 52.6830268,7.75695788 52.7975571,7.43751292 C52.9120596,7.11806796 52.9693386,6.77779309 52.9693386,6.41668831 L52.9693386,6.41668831 Z" id="Fill-6"></path>
                        <path d="M58.0601418,4.67708159 C58.0601418,4.49237166 58.0551373,4.25417988 58.0450991,3.96250626 C58.0350609,3.67083264 58.0200473,3.40834864 58,3.17499861 L58.9774286,3.17499861 C58.9974759,3.35973637 59.0125186,3.56389677 59.0225568,3.78750765 C59.0325659,4.01111853 59.0375996,4.19582846 59.0375996,4.34166528 L59.0676559,4.34166528 C59.2681578,3.94305579 59.5689253,3.61979949 59.9699291,3.37189639 C60.3709329,3.12396546 60.8220695,3 61.3233097,3 C61.4536316,3 61.5714421,3.00486957 61.6767121,3.0145809 C61.7819531,3.02432005 61.8897254,3.04377052 62,3.07293232 L61.8646736,4.00624896 C61.8045317,3.98682631 61.7042662,3.96737584 61.5639062,3.94792536 C61.4235752,3.92847489 61.2832151,3.91876357 61.1428551,3.91876357 C60.8721731,3.91876357 60.6115294,3.96737584 60.3608947,4.06460038 C60.1102891,4.16182492 59.8922422,4.31492435 59.706754,4.52395433 C59.5212948,4.73298431 59.3709256,5.00033789 59.2556465,5.32604288 C59.1403382,5.65174788 59.0826987,6.04306692 59.0826987,6.5 L59.0826987,10 L58.0601418,10 L58.0601418,4.67708159 L58.0601418,4.67708159 Z" id="Fill-7"></path>
                        <path d="M66.854157,10 L66.1458228,10 L66.1458228,3.27584411 L66.854157,3.27584411 L66.854157,10 L66.854157,10 Z M67,0.689651391 C67,0.890795144 66.947919,1.05602527 66.8437569,1.18534176 C66.7395747,1.31465824 66.6249924,1.37930278 66.4999899,1.37930278 C66.3749874,1.37930278 66.2604051,1.31465824 66.1562431,1.18534176 C66.052081,1.05602527 66,0.890795144 66,0.689651391 C66,0.488507638 66.052081,0.323277516 66.1562431,0.193961027 C66.2604051,0.0646445373 66.3749874,0 66.4999899,0 C66.6249924,0 66.7395747,0.0646445373 66.8437569,0.193961027 C66.947919,0.323277516 67,0.488507638 67,0.689651391 L67,0.689651391 Z" id="Fill-8"></path>
                        <path d="M75.1689892,4.75000679 C75.0304919,4.47494871 74.8204144,4.24967908 74.5387835,4.07419789 C74.2571527,3.8987167 73.936288,3.81097611 73.5761896,3.81097611 C73.4099821,3.81097611 73.2437746,3.82995218 73.0775671,3.86790433 C72.9113596,3.90582934 72.7636166,3.96748122 72.6343381,4.05285999 C72.5050865,4.1382116 72.4012135,4.2472901 72.3227191,4.38009548 C72.2442248,4.51287371 72.204991,4.66937883 72.204991,4.84961082 C72.204991,5.1625939 72.3296333,5.40211595 72.5789445,5.56809553 C72.8282558,5.73407511 73.2206738,5.87399312 73.7562254,5.98779528 C74.5226237,6.1490512 75.0881902,6.38382244 75.4529248,6.69208186 C75.8176595,7.00034128 76,7.41531737 76,7.93698299 C76,8.3163959 75.9284466,8.63651876 75.7853399,8.89735157 C75.6422063,9.15818438 75.4552296,9.37161772 75.2243828,9.53759729 C74.9935361,9.70357687 74.7327012,9.82215698 74.4418247,9.89328333 C74.1509749,9.96443683 73.8578205,10 73.5623345,10 C73.0729576,10 72.5974091,9.89564516 72.1357424,9.68698977 C71.6740489,9.47830724 71.295486,9.15107174 71,8.70528328 L71.7479338,8.13616391 C71.9141145,8.43022521 72.1588163,8.67683274 72.4819857,8.87601367 C72.8051819,9.07519459 73.1606708,9.17479862 73.5484794,9.17479862 C73.751616,9.17479862 73.9455337,9.15582255 74.1302057,9.1178704 C74.3148777,9.07994539 74.476449,9.0135427 74.6149731,8.91868948 C74.7534705,8.82383625 74.8642844,8.70292145 74.9473882,8.55589081 C75.0304919,8.40886016 75.0720304,8.22629348 75.0720304,8.00813648 C75.0720304,7.6571741 74.9081276,7.39397947 74.5803488,7.21849828 C74.2525432,7.04301709 73.7793262,6.87939934 73.1606708,6.72764504 C72.9667531,6.68021842 72.7613119,6.62092837 72.5443202,6.54980202 C72.3273286,6.47864852 72.1264967,6.37432083 71.9418247,6.23679179 C71.7571527,6.09926275 71.6048002,5.92614339 71.4847674,5.71748801 C71.3647346,5.50880547 71.3047048,5.24797267 71.3047048,4.93496244 C71.3047048,4.59350167 71.3693441,4.30182935 71.4986225,4.05997262 C71.6278742,3.81808874 71.8010227,3.61890782 72.0180143,3.46240271 C72.2350059,3.30589759 72.4819857,3.18970646 72.7590071,3.1138293 C73.0360018,3.03795215 73.3222689,3 73.6177281,3 C74.0701759,3 74.5087686,3.10435484 74.9335331,3.31301023 C75.3582707,3.52169276 75.6768306,3.81572691 75.8892129,4.19513983 L75.1689892,4.75000679 L75.1689892,4.75000679 Z" id="Fill-9"></path>
                        <path d="M85.1,5.98779528 C85.0739043,5.36180197 84.8891394,4.84249819 84.5456549,4.42988393 C84.2021704,4.01726966 83.7130395,3.81097611 83.078262,3.81097611 C82.7826028,3.81097611 82.5086986,3.87026616 82.2565239,3.98881912 C82.0043493,4.10739923 81.7826113,4.26862801 81.5913098,4.47255973 C81.4000084,4.67649146 81.2478254,4.90887373 81.1347859,5.16970654 C81.0217464,5.43056649 80.9565071,5.70326274 80.9391184,5.98779528 L85.1,5.98779528 L85.1,5.98779528 Z M86,6.3008055 L86,6.51423884 C86,6.590116 85.9956591,6.67074396 85.9869521,6.75609557 L80.9260705,6.75609557 C80.9347775,7.08808188 80.9956507,7.4010921 81.1086902,7.69512626 C81.2217296,7.98916041 81.3782536,8.24524241 81.578262,8.46339941 C81.7782704,8.6815564 82.013031,8.85467576 82.2825944,8.98273034 C82.5521831,9.11075776 82.8434761,9.17479862 83.1565239,9.17479862 C83.6173887,9.17479862 84.0152099,9.05860749 84.3500126,8.82622522 C84.6847901,8.59384296 84.9391352,8.32587037 85.1130479,8.02236175 L85.778262,8.59145398 C85.4130479,9.09417066 85.0108606,9.45460751 84.5717507,9.6727645 C84.1326155,9.8909215 83.6608732,10 83.1565239,10 C82.7043409,10 82.2847901,9.91225941 81.8978211,9.73677822 C81.5108774,9.56129703 81.1782451,9.31707847 80.9,9.00406824 C80.6217296,8.69105801 80.402162,8.32114671 80.2412972,7.89430718 C80.0804324,7.46746765 80,7.00270311 80,6.50001357 C80,5.99729689 80.078262,5.53253235 80.2347859,5.10569282 C80.3913098,4.67888044 80.6086818,4.30894199 80.8869521,3.99593176 C81.1652225,3.68292153 81.491293,3.43870297 81.8652141,3.26322178 C82.2391352,3.08774059 82.6434677,3 83.078262,3 C83.5565155,3 83.978262,3.08774059 84.3434761,3.26322178 C84.7086902,3.43870297 85.0130563,3.6758089 85.2565239,3.97459385 C85.4999916,4.27337881 85.6847817,4.62195221 85.810869,5.0203412 C85.9369563,5.41870305 86,5.84554258 86,6.3008055 L86,6.3008055 Z" id="Fill-10"></path>
                    </g>
                    <g id="anynines">
                        <path d="M7.52631579,6.77565767 L7.0400088,6.77565767 C6.62315459,6.77565767 6.20244954,6.79467991 5.77789364,6.8326973 C5.35333773,6.87071469 4.97507452,6.94295585 4.64315899,7.0494208 C4.31121597,7.15588574 4.03720068,7.31180309 3.82105813,7.51711866 C3.60491558,7.72243423 3.49684431,7.99240375 3.49684431,8.32700011 C3.49684431,8.53993 3.54701534,8.72242972 3.64735742,8.87452636 C3.747727,9.02662301 3.87508002,9.14828949 4.02947148,9.2395529 C4.18386295,9.3308163 4.36141451,9.39544315 4.56209866,9.43346054 C4.76281032,9.47147793 4.95579277,9.49050017 5.14104603,9.49050017 C5.91297585,9.49050017 6.50350327,9.28136389 6.91262828,8.86311844 C7.32175329,8.44487298 7.52631579,7.87832449 7.52631579,7.16350006 L7.52631579,6.77565767 L7.52631579,6.77565767 Z M0.555787273,1.91634188 C1.23507672,1.27755222 2.02631579,0.798473524 2.92947698,0.479078695 C3.83263818,0.159683866 4.75508112,0 5.6968333,0 C6.66947478,0 7.49157565,0.117872869 8.1631634,0.353618607 C8.83475115,0.589364345 9.37895837,0.95436378 9.79578507,1.44867111 C10.2126393,1.94295134 10.5175439,2.56653946 10.7105263,3.31938128 C10.9035088,4.0722502 11,4.96578074 11,6 L11,11.7262369 L7.52631579,11.7262369 L7.52631579,10.5171051 L7.4568355,10.5171051 C7.16351097,10.9885966 6.71964582,11.3536231 6.12526756,11.6121847 C5.5308893,11.8707192 4.88631249,12 4.19156464,12 C3.72841775,12 3.24981246,11.9391668 2.75577627,11.8175003 C2.26174008,11.6958338 1.81017324,11.4981055 1.40104823,11.2243423 C0.991923223,10.9505792 0.656129348,10.5855527 0.393666607,10.1292898 C0.131231371,9.67299989 0,9.1102721 0,8.44107937 C0,7.6197629 0.227722599,6.95818449 0.683140291,6.45628994 C1.13858549,5.9543683 1.72526206,5.56655301 2.44314249,5.29278988 C3.16105043,5.01899966 3.9599912,4.83649994 4.8399923,4.74523654 C5.7199934,4.65400023 6.5768344,4.60836852 7.41051531,4.60836852 L7.41051531,4.4258688 C7.41051531,3.86311392 7.20983116,3.44866208 6.80843536,3.18251327 C6.40701204,2.91633736 5.91297585,2.78326296 5.32632679,2.78326296 C4.78597041,2.78326296 4.26492328,2.89734222 3.76315789,3.12547364 C3.26139251,3.35360506 2.83298576,3.62736818 2.47788263,3.94676301 L0.555787273,1.91634188 L0.555787273,1.91634188 Z" id="Fill-11"></path>
                        <path d="M19.3109735,12 L19.3109735,5.62500609 C19.3109735,5.29687772 19.2848959,4.98436655 19.2327141,4.68750043 C19.1805589,4.39063432 19.0948373,4.12889995 18.9756026,3.90235302 C18.8563679,3.67577825 18.6886692,3.49608294 18.4725596,3.36326709 C18.2564234,3.23047907 17.9844143,3.16405723 17.6565055,3.16405723 C17.3285702,3.16405723 17.0416633,3.23047907 16.7957318,3.36326709 C16.5498002,3.49608294 16.344844,3.67967559 16.1808896,3.91407288 C16.0169352,4.14844234 15.8939562,4.41797139 15.811979,4.72266003 C15.7300018,5.02734867 15.6890265,5.34375718 15.6890265,5.67188555 L15.6890265,12 L12,12 L12,0.328128371 L15.5548675,0.328128371 L15.5548675,1.94530266 L15.5995872,1.94530266 C15.7337196,1.695316 15.9088804,1.44922668 16.12499,1.2070347 C16.3411262,0.964842726 16.5944933,0.757810343 16.8851445,0.585937554 C17.1757958,0.414064765 17.4925511,0.27342639 17.8353576,0.164050266 C18.178164,0.0546741428 18.5433569,0 18.930883,0 C19.6761398,0 20.309624,0.140610537 20.8312825,0.42185945 C21.3529676,0.703108362 21.7740334,1.06639633 22.0945066,1.51172334 C22.4149532,1.95702252 22.6459871,2.46874355 22.7876082,3.04685858 C22.9292027,3.62500145 23,4.20311648 23,4.78125935 L23,12 L19.3109735,12 L19.3109735,12 Z" id="Fill-12"></path>
                        <path d="M30.9051065,13.9756042 C30.6766412,14.6097528 30.4215003,15.1748085 30.1397382,15.6707423 C29.8579489,16.1666761 29.5228628,16.5894321 29.1344528,16.9390395 C28.7460427,17.2886179 28.2891121,17.5528514 27.7636337,17.7317108 C27.2381553,17.9105703 26.6174536,18 25.9015829,18 C25.551273,18 25.1895114,17.9756074 24.8163523,17.9268223 C24.4431931,17.8780662 24.1195045,17.813029 23.8453407,17.7317108 L24.2566,14.3658562 C24.4393668,14.4308934 24.6411838,14.4837343 24.8620508,14.5244078 C25.0828906,14.5650525 25.2847075,14.5853603 25.4675015,14.5853603 C26.0462767,14.5853603 26.4651615,14.4430897 26.7240744,14.1585484 C26.9830144,13.8739782 27.2038814,13.4715589 27.3866482,12.9512326 L27.752209,11.9512245 L23,0 L27.1581829,0 L29.694205,7.80486596 L29.7627528,7.80486596 L32.0246111,0 L36,0 L30.9051065,13.9756042 L30.9051065,13.9756042 Z" id="Fill-13"></path>
                        <path d="M44.3110001,12 L44.3110001,5.62500609 C44.3110001,5.29687772 44.2848959,4.98436655 44.2327407,4.68750043 C44.1805589,4.39063432 44.0948639,4.12889995 43.9756292,3.90235302 C43.8563679,3.67577825 43.6886958,3.49608294 43.4725596,3.36326709 C43.25645,3.23047907 42.9844408,3.16405723 42.6565055,3.16405723 C42.3285968,3.16405723 42.0416899,3.23047907 41.7957318,3.36326709 C41.5498002,3.49608294 41.3448705,3.67967559 41.1809162,3.91407288 C41.0169352,4.14844234 40.8939827,4.41797139 40.8120056,4.72266003 C40.7300284,5.02734867 40.6890265,5.34375718 40.6890265,5.67188555 L40.6890265,12 L37,12 L37,0.328128371 L40.5548941,0.328128371 L40.5548941,1.94530266 L40.5996137,1.94530266 C40.7337462,1.695316 40.9088804,1.44922668 41.1250166,1.2070347 C41.3411262,0.964842726 41.5945199,0.757810343 41.8851711,0.585937554 C42.1758223,0.414064765 42.4925511,0.27342639 42.8353842,0.164050266 C43.1781906,0.0546741428 43.5433834,0 43.9309095,0 C44.6761663,0 45.309624,0.140610537 45.8313091,0.42185945 C46.3529941,0.703108362 46.77406,1.06639633 47.0945332,1.51172334 C47.4149798,1.95702252 47.6460136,2.46874355 47.7876082,3.04685858 C47.9292027,3.62500145 48,4.20311648 48,4.78125935 L48,12 L44.3110001,12 L44.3110001,12 Z" id="Fill-14"></path>
                        <path d="M49,12 L49,0 L53,0 L53,12 L49,12 L49,12 Z" id="Fill-15"></path>
                        <path d="M61.3109824,12 L61.3109824,5.62500609 C61.3109824,5.29687772 61.2848783,4.98436655 61.2327232,4.68750043 C61.1805415,4.39063432 61.0948468,4.12889995 60.9756123,3.90235302 C60.8563779,3.67577825 60.6886796,3.49608294 60.4725705,3.36326709 C60.2564349,3.23047907 59.9844264,3.16405723 59.6564919,3.16405723 C59.3285839,3.16405723 59.0416777,3.23047907 58.7957468,3.36326709 C58.5497892,3.49608294 58.3448601,3.67967559 58.1809061,3.91407288 C58.0169521,4.14844234 57.8939733,4.41797139 57.8119963,4.72266003 C57.7300194,5.02734867 57.6890176,5.34375718 57.6890176,5.67188555 L57.6890176,12 L54,12 L54,0.328128371 L57.5548855,0.328128371 L57.5548855,1.94530266 L57.599605,1.94530266 C57.7337371,1.695316 57.908871,1.44922668 58.1250066,1.2070347 C58.3411157,0.964842726 58.5945088,0.757810343 58.8851593,0.585937554 C59.1758098,0.414064765 59.4925379,0.27342639 59.8353701,0.164050266 C60.1781757,0.0546741428 60.5433676,0 60.9308928,0 C61.6761478,0 62.3096039,0.140610537 62.8312878,0.42185945 C63.3529716,0.703108362 63.7740364,1.06639633 64.0945088,1.51172334 C64.4149546,1.95702252 64.6459879,2.46874355 64.7875821,3.04685858 C64.9291763,3.62500145 65,4.20311648 65,4.78125935 L65,12 L61.3109824,12 L61.3109824,12 Z" id="Fill-16"></path>
                        <path d="M74.5086725,4.70942006 C74.5086725,4.12076608 74.3198393,3.61510293 73.9422003,3.1924575 C73.5645338,2.76981206 72.9980616,2.55848935 72.2427836,2.55848935 C71.8728342,2.55848935 71.5337253,2.61509845 71.2254295,2.72828976 C70.9171337,2.84150796 70.6473955,2.99622158 70.4161874,3.1924575 C70.1849793,3.38866653 69.9999908,3.61886791 69.861277,3.88300786 C69.7225356,4.1471747 69.6454754,4.42263647 69.6300414,4.70942006 L74.5086725,4.70942006 L74.5086725,4.70942006 Z M78,6.13583495 L78,6.58868087 C78,6.73962951 77.992283,6.8830213 77.9768764,7.01885625 L69.6300414,7.01885625 C69.660882,7.33584033 69.757221,7.62265081 69.9190584,7.87923392 C70.0809233,8.13584391 70.2890078,8.35848845 70.5433395,8.54716753 C70.7976712,8.7358466 71.0828434,8.88303027 71.3988287,8.98866473 C71.7148415,9.09432609 72.0423886,9.14717022 72.3814975,9.14717022 C72.982655,9.14717022 73.4913184,9.03774388 73.9075149,8.81886432 C74.323684,8.60001165 74.6628204,8.31699304 74.9248416,7.96980848 L77.5606799,9.59998924 C77.021176,10.3698192 76.3082729,10.9622651 75.4219706,11.3773537 C74.5356408,11.7924423 73.5067524,12 72.3352504,12 C71.4720442,12 70.6551125,11.86793 69.8844005,11.6037632 C69.1136885,11.3396232 68.4393155,10.9547082 67.8612815,10.4490451 C67.2832201,9.94338193 66.8285209,9.3207625 66.4971015,8.58113299 C66.1657097,7.84150348 66,6.99621261 66,6.04528728 C66,5.12453554 66.1618374,4.29056649 66.4855398,3.54340703 C66.8092421,2.79622068 67.2485622,2.16225253 67.8034727,1.64150258 C68.3583831,1.12075264 69.0134773,0.716985868 69.7687827,0.430175385 C70.5240882,0.143391795 71.3410473,0 72.2196601,0 C73.0674323,0 73.8458613,0.139626819 74.5549196,0.418853565 C75.2639779,0.698107203 75.872825,1.10187397 76.3814883,1.63018076 C76.8901791,2.15848756 77.2870969,2.79998566 77.5722417,3.55470196 C77.8574139,4.30944516 78,5.16982282 78,6.13583495 L78,6.13583495 Z" id="Fill-17"></path>
                        <path d="M85.9357793,3.69056381 C85.6299588,3.40378022 85.2706346,3.16225701 84.8577795,2.96604799 C84.4449518,2.76981206 84.0091588,2.67170755 83.5504552,2.67170755 C83.1987588,2.67170755 82.8738415,2.73961158 82.575676,2.87547342 C82.2775105,3.01130837 82.1284414,3.24527473 82.1284414,3.5773456 C82.1284414,3.89432968 82.2928206,4.12076608 82.6215518,4.25660103 C82.9503103,4.39246288 83.4816415,4.54338462 84.2156,4.70942006 C84.6437106,4.79999462 85.0756896,4.92829962 85.5114553,5.09433506 C85.9472483,5.26037049 86.3409793,5.47925005 86.6926484,5.75094685 C87.0443448,6.02264364 87.3272002,6.35471451 87.5412692,6.74715946 C87.7553381,7.1396313 87.8623726,7.60753712 87.8623726,8.15093071 C87.8623726,8.86038663 87.7171173,9.46038932 87.4266069,9.95093878 C87.1360692,10.4415151 86.7576482,10.8377251 86.2912623,11.1396223 C85.8249037,11.4415196 85.3012275,11.6603723 84.7201794,11.7962341 C84.1391312,11.9320691 83.5581103,12 82.9770621,12 C82.0443448,12 81.1307243,11.8528163 80.2362277,11.5585028 C79.3417312,11.2641624 78.596331,10.8301951 78,10.256601 L80.1100965,8.06038304 C80.4464828,8.4226275 80.8593378,8.72452478 81.3486344,8.96604799 C81.8379309,9.20754429 82.3577932,9.32829245 82.9082484,9.32829245 C83.2140689,9.32829245 83.5160484,9.25659655 83.8142139,9.11320476 C84.1123794,8.96981296 84.2614485,8.71696794 84.2614485,8.35472348 C84.2614485,8.00753892 84.0779725,7.75092892 83.7109933,7.58489348 C83.3440413,7.41885805 82.7706482,7.24529266 81.9908139,7.06414354 C81.593269,6.97359587 81.1957241,6.85282082 80.7981519,6.70187218 C80.400607,6.55095043 80.0450967,6.34715767 79.7316483,6.09057456 C79.4181999,5.83396456 79.1620691,5.51698049 78.9633103,5.13962234 C78.7645242,4.76226418 78.6651447,4.30944516 78.6651447,3.78113837 C78.6651447,3.10188294 78.8104,2.52452389 79.1009104,2.04906122 C79.3914481,1.57357166 79.7660552,1.18489169 80.2247588,0.883021303 C80.6834896,0.581124025 81.1918829,0.358479488 81.7499932,0.215087693 C82.3081035,0.0716958975 82.8623726,0 83.4128278,0 C84.2691036,0 85.1062553,0.132069975 85.9243104,0.396236817 C86.7423381,0.660376767 87.4342347,1.05661358 88,1.58489348 L85.9357793,3.69056381 L85.9357793,3.69056381 Z" id="Fill-18"></path>
                    </g>
                </g>
                <path d="M31.9993883,0.00137202157 C23.1644782,0.00137202157 16.0006117,7.16523848 16.0006117,16.0008826 C16.0006117,17.5780171 16.2312949,19.0992569 16.6565342,20.5377822 L23.0008581,20.5377822 C22.3106963,19.1737918 21.9197488,17.6335446 21.9197488,16.0008826 C21.9197488,10.4346785 26.4327909,5.92124312 31.9993883,5.92124312 C37.5663265,5.92124312 42.0797619,10.4346785 42.0797619,16.0008826 C42.0797619,21.5685811 37.5663265,26.0805222 31.9993883,26.0805222 L19.5775244,26.0805222 L14.0545258,26.0805222 L12.8914361,26.0805222 C9.07230477,26.0805222 5.97652598,22.9866048 5.97652598,19.1663461 C5.97652598,15.3487092 9.07230477,12.2529304 12.8914361,12.2529304 C13.1403662,8.91343866 15.2176418,6.21788817 15.2176418,6.21788817 L12.8914361,6.21788817 C5.77116843,6.21788817 0,11.9894499 0,19.1085902 C0,26.2295656 5.77116843,32 12.8914361,32 L31.9993883,32 C34.9341686,32 37.6818647,31.2077231 40.045351,29.8292084 C44.8021061,27.0561606 48,21.9028738 48,16.0008826 C48,7.16523848 40.8365268,0.00137202157 31.9993883,0.00137202157" id="logo-icon" sketch:type="MSShapeGroup"></path>
            </g>
        </g>
    </g>
</svg>